<svg xmlns="http://www.w3.org/2000/svg" version="1.1" xmlns:xlink="http://www.w3.org/1999/xlink" xmlns:svgjs="http://svgjs.dev/svgjs" width="1500" height="400" viewBox="0 0 1500 530"><g transform="matrix(1,0,0,1,-0.9084522071641459,-1.579470637032216)"><svg viewBox="0 0 396 140" data-background-color="#ffffff" preserveAspectRatio="xMidYMid meet" height="530" width="1500" xmlns="http://www.w3.org/2000/svg" xmlns:xlink="http://www.w3.org/1999/xlink"><g id="tight-bounds" transform="matrix(1,0,0,1,0.24008861730862918,0.41721865883869214)"><svg viewBox="0 0 395.52 139.1655626823226" height="139.1655626823226" width="395.52"><g><svg viewBox="0 0 395.52 139.1655626823226" height="139.1655626823226" width="395.52"><g><svg viewBox="0 0 395.52 139.1655626823226" height="139.1655626823226" width="395.52"><g id="textblocktransform"><svg viewBox="0 0 395.52 139.1655626823226" height="139.1655626823226" width="395.52" id="textblock"><g><svg viewBox="0 0 395.52 103.16664790656779" height="103.16664790656779" width="395.52"><path d="M394.594 22.127C392.735 11.419 387.435 8.442 387.435 8.442 371.165-2.588 350.86-0.211 332.619 1.374 300.414 1.438 268.339 3.794 236.208 5.058 168.767 5.25 100.749 2.081 33.643 9.898 27.339 12.297-6.54 10.369 1.121 23.498 3.129 28.959 10.456 35.021 10.232 40.032 11.236 40.91 12.631 38.897 13.226 40.161 15.309 43.566 18.711 41.96 21.501 43.973 17.614 49.349 20.403 53.825 23.062 58.515 18.377 59.736 12.371 59.158 9.675 63.206 9.396 66.14 7.89 65.583 6.235 65.455 5.026 65.369 2.59 65.69 2.999 66.611 4.394 69.759-1.594 71.58 2.162 74.664-0.422 78.005 3.948 80.896 3.353 84.516 3.278 85.244 3.687 85.865 4.338 86.037 7.22 86.958 3.018 88.757 3.464 90.706 33.029 104.027 65.104 94.818 95.394 100.943 103.259 96.66 97.346 102.464 100.489 101.564 102.943 100.515 104.728 104.862 107.499 102.399 107.927 101.693 107.276 100.022 108.8 100.343 109.6 100.515 110.307 100.472 110.418 99.487 110.586 98.009 109.117 98.93 108.726 98.159 112.947 94.261 111.906 103.535 115.866 103.149 115.68 102.014 114.528 100.386 116.889 100.6 119.232 98.973 119.306 97.623 121.389 101.286 121.463 102.078 121.835 102.635 122.43 103.021 128.938 99.037 135.409 104.434 142.233 102.635 146.417 100.665 150.433 103.706 154.672 102.956 156.16 102.357 157.666 101.286 159.098 103.085 176.632 103.47 195.319 101.864 211.943 103.149 256.364 100.75 303.836 104.134 350.674 100.964 361.719 99.744 373.192 98.009 383.958 96.617 383.958 96.617 392.679 92.804 392.679 75.671S394.538 60.678 394.817 47.036C395.096 33.393 396.398 32.836 394.538 22.127Z" opacity="1" fill="#350145" data-fill-palette-color="tertiary"></path><g transform="matrix(1,0,0,1,55.76832,26.068561146666667)"><svg width="283.98335999999995" viewBox="4.38 -33.33 243.44 43.75" height="51.02952561323445" data-palette-color="#ffffff"><path d="M8.33 0L4.38 0 4.38-31.25 8.33-31.25 8.33-21.04 19.44-21.04 19.44-31.25 23.4-31.25 23.4 0 19.44 0 19.44-17.5 8.33-17.5 8.33 0ZM40.62 0.42L40.62 0.42Q37.6 0.42 35.1-1.04 32.6-2.5 31.13-4.97 29.65-7.43 29.65-10.42L29.65-10.42Q29.65-13.44 31.13-15.89 32.6-18.33 35.1-19.79 37.6-21.25 40.62-21.25L40.62-21.25Q43.68-21.25 46.16-19.79 48.64-18.33 50.12-15.89 51.59-13.44 51.59-10.42L51.59-10.42Q51.59-7.43 50.12-4.97 48.64-2.5 46.16-1.04 43.68 0.42 40.62 0.42ZM40.62-3.13L40.62-3.13Q42.64-3.13 44.27-4.11 45.9-5.1 46.87-6.75 47.84-8.4 47.84-10.42L47.84-10.42Q47.84-12.43 46.87-14.08 45.9-15.73 44.27-16.72 42.64-17.71 40.62-17.71L40.62-17.71Q38.61-17.71 36.98-16.72 35.34-15.73 34.37-14.08 33.4-12.43 33.4-10.42L33.4-10.42Q33.4-8.4 34.37-6.75 35.34-5.1 36.98-4.11 38.61-3.13 40.62-3.13ZM62.18 0.42L62.18 0.42Q60.59 0.42 58.76-0.19 56.94-0.8 55.62-2.22L55.62-2.22 56.66-6.32Q57.63-4.69 59.16-3.73 60.69-2.78 62.43-2.78L62.43-2.78Q64.09-2.78 64.93-3.59 65.76-4.41 65.76-5.59L65.76-5.59Q65.76-6.94 64.87-7.57 63.99-8.19 63.29-8.44L63.29-8.44 60.48-9.51Q59.72-9.83 58.64-10.43 57.56-11.04 56.77-12.19 55.97-13.33 55.97-15.17L55.97-15.17Q55.97-16.84 56.77-18.23 57.56-19.62 59.02-20.43 60.48-21.25 62.46-21.25L62.46-21.25Q64.02-21.25 65.72-20.69 67.43-20.14 68.61-18.82L68.61-18.82 67.56-14.72Q66.73-16.25 65.31-17.15 63.88-18.06 62.36-18.06L62.36-18.06Q60.93-18.06 60.12-17.26 59.3-16.46 59.3-15.42L59.3-15.42Q59.3-14.58 59.86-13.92 60.41-13.26 61.52-12.85L61.52-12.85 64.34-11.77Q65.1-11.49 66.23-10.87 67.36-10.24 68.22-9.06 69.09-7.88 69.09-5.87L69.09-5.87Q69.09-3.06 67.13-1.32 65.17 0.42 62.18 0.42ZM80.69 0L76.94 0 76.94-17.71 72.21-17.71 72.21-20.83 77.04-20.83 77.04-27.78 80.58-27.78 80.58-20.83 85.76-20.83 85.76-17.71 80.69-17.71 80.69 0ZM100.06 0.42L100.06 0.42Q96.8 0.42 94.21-1.04 91.62-2.5 90.15-5.02 88.67-7.53 88.67-10.63L88.67-10.63Q88.67-13.58 90.09-15.99 91.52-18.4 93.93-19.83 96.34-21.25 99.26-21.25L99.26-21.25Q102.14-21.25 104.54-19.88 106.93-18.51 108.36-16.18 109.78-13.85 109.78-10.9L109.78-10.9 109.78-9.38 96.17-9.38Q95.27-9.38 94.33-9.44 93.39-9.51 92.49-9.65L92.49-9.65Q92.87-6.88 95.01-5 97.14-3.13 100.09-3.13L100.09-3.13Q102.07-3.13 103.77-4.03 105.48-4.93 106.52-6.42L106.52-6.42 107.56-2.15Q106.07-0.94 104.14-0.26 102.21 0.42 100.06 0.42ZM92.39-12.19L92.39-12.19Q94.26-12.5 96.17-12.5L96.17-12.5 103.08-12.5Q103.84-12.5 104.59-12.45 105.34-12.4 106.1-12.33L106.1-12.33Q105.62-14.76 103.67-16.34 101.73-17.92 99.26-17.92L99.26-17.92Q96.73-17.92 94.82-16.23 92.91-14.55 92.39-12.19ZM118.53 0L114.78 0 114.78-33.33 118.53-33.33 118.53 0ZM134.99 0L126.24 0 126.24-31.25 134.99-31.25Q137.97-31.25 139.72-30.07 141.48-28.89 142.24-27.2 143.01-25.52 143.01-24.03L143.01-24.03Q143.01-22.33 142.22-20.92 141.44-19.51 140.12-18.61L140.12-18.61Q142.66-17.47 144.24-15.17 145.82-12.88 145.82-9.97L145.82-9.97Q145.82-7.5 144.59-5.21 143.35-2.92 140.94-1.46 138.53 0 134.99 0L134.99 0ZM130.19-16.67L130.19-3.54 134.71-3.54Q137.28-3.54 138.84-4.55 140.4-5.56 141.13-7.08 141.86-8.61 141.86-10.1L141.86-10.1Q141.86-11.56 141.17-13.09 140.47-14.62 138.91-15.64 137.35-16.67 134.71-16.67L134.71-16.67 130.19-16.67ZM130.19-27.71L130.19-20 134.67-20Q136.72-20 137.99-20.99 139.26-21.98 139.26-23.82L139.26-23.82Q139.26-25.73 138.01-26.72 136.76-27.71 134.81-27.71L134.81-27.71 130.19-27.71ZM159.18 0.42L159.18 0.42Q157 0.42 155.09-0.68 153.18-1.77 152-3.85 150.82-5.94 150.82-8.85L150.82-8.85 150.82-20.83 154.57-20.83 154.57-9.38Q154.57-6.91 156.04-5.02 157.52-3.13 160.19-3.13L160.19-3.13Q162.38-3.13 164.1-4.7 165.82-6.28 165.82-9.27L165.82-9.27 165.82-20.83 169.57-20.83 169.57 0 166.09 0 166.09-3.37Q164.95-1.53 163.12-0.56 161.3 0.42 159.18 0.42ZM185.15 0.28L185.15 0.28Q182.31 0.28 179.95-1.16 177.58-2.6 176.18-5.03 174.77-7.47 174.77-10.42L174.77-10.42Q174.77-13.37 176.18-15.8 177.58-18.23 179.95-19.67 182.31-21.11 185.15-21.11L185.15-21.11Q187.2-21.11 189.01-20.38 190.81-19.65 192.2-18.37L192.2-18.37 192.2-33.33 195.95-33.33 195.95 0 192.48 0 192.48-2.74Q191.09-1.35 189.2-0.54 187.31 0.28 185.15 0.28ZM185.64-3.13L185.64-3.13Q187.62-3.13 189.23-4.11 190.85-5.1 191.8-6.75 192.76-8.4 192.76-10.42L192.76-10.42Q192.76-12.43 191.8-14.08 190.85-15.73 189.23-16.72 187.62-17.71 185.64-17.71L185.64-17.71Q183.66-17.71 182.05-16.72 180.43-15.73 179.48-14.08 178.52-12.43 178.52-10.42L178.52-10.42Q178.52-8.4 179.48-6.75 180.43-5.1 182.05-4.11 183.66-3.13 185.64-3.13ZM211.54 0.28L211.54 0.28Q208.69 0.28 206.33-1.16 203.97-2.6 202.56-5.03 201.16-7.47 201.16-10.42L201.16-10.42Q201.16-13.37 202.56-15.8 203.97-18.23 206.33-19.67 208.69-21.11 211.54-21.11L211.54-21.11Q213.59-21.11 215.39-20.38 217.2-19.65 218.59-18.37L218.59-18.37 218.59-33.33 222.34-33.33 222.34 0 218.87 0 218.87-2.74Q217.48-1.35 215.59-0.54 213.69 0.28 211.54 0.28ZM212.03-3.13L212.03-3.13Q214.01-3.13 215.62-4.11 217.23-5.1 218.19-6.75 219.14-8.4 219.14-10.42L219.14-10.42Q219.14-12.43 218.19-14.08 217.23-15.73 215.62-16.72 214.01-17.71 212.03-17.71L212.03-17.71Q210.05-17.71 208.43-16.72 206.82-15.73 205.86-14.08 204.91-12.43 204.91-10.42L204.91-10.42Q204.91-8.4 205.86-6.75 206.82-5.1 208.43-4.11 210.05-3.13 212.03-3.13ZM232.2 10.42L228.13 10.42 234.91-3.06 226.09-20.83 230.32-20.83 234.77-11.81Q235.36-10.59 235.91-9.41 236.47-8.23 237.02-6.56L237.02-6.56Q237.61-8.23 238.15-9.43 238.69-10.63 239.32-11.81L239.32-11.81 243.83-20.83 247.82-20.83 232.2 10.42Z" opacity="1" transform="matrix(1,0,0,1,0,0)" fill="#ffffff" class="wordmark-text-0" data-fill-palette-color="quaternary" id="text-0"></path></svg></g></svg></g><g transform="matrix(1,0,0,1,75.54431999999998,115.21349419523773)"><svg viewBox="0 0 244.43136 23.95206848708487" height="23.95206848708487" width="244.43136"><g transform="matrix(1,0,0,1,0,0)"><svg width="244.43136" viewBox="0.05 -34 487.75 47.8" height="23.95206848708487" data-palette-color="#350145"><path d="M12.15 0.2L12.15 0.2Q10.6 0.2 9.8-0.48 9-1.15 9-2.85L9-2.85Q9-4.15 9.43-6.48 9.85-8.8 10.65-11.65L10.65-11.65Q10.25-13.65 9.68-15.83 9.1-18 8.35-19.95L8.35-19.95Q7.4-22.6 6.05-24.4 4.7-26.2 2.85-26.2L2.85-26.2Q2.5-26.2 2.18-26.15 1.85-26.1 1.6-26L1.6-26Q1.1-25.9 0.58-26.7 0.05-27.5 0.05-28.6L0.05-28.6Q0.05-30 1.03-31.08 2-32.15 3.7-32.15L3.7-32.15Q5.8-32.15 7.58-30.78 9.35-29.4 10.73-26.15 12.1-22.9 12.95-17.3L12.95-17.3Q13.85-19.6 15.13-22.18 16.4-24.75 18-27.03 19.6-29.3 21.45-30.73 23.3-32.15 25.35-32.15L25.35-32.15Q26.7-32.15 27.43-31.5 28.15-30.85 28.15-29.7L28.15-29.7Q28.15-28.9 27.83-28 27.5-27.1 26.95-26.45 26.4-25.8 25.8-25.8L25.8-25.8Q25.6-25.8 25.38-25.83 25.15-25.85 24.9-25.95L24.9-25.95Q24.4-26.2 23.75-26.2L23.75-26.2Q22.15-26.2 20.25-24 18.35-21.8 16.5-17.2L16.5-17.2Q14.6-12.35 14.6-7.8L14.6-7.8Q14.6-6.75 14.88-5.73 15.15-4.7 15.9-3.85L15.9-3.85Q16.4-3.1 16.4-2.45L16.4-2.45Q16.4-1.35 15.2-0.58 14 0.2 12.15 0.2ZM31.3 0.65L31.3 0.65Q27.85 0.65 25.77-1.23 23.7-3.1 23.7-6.75L23.7-6.75Q23.7-8.45 24.17-10.05 24.65-11.65 25.45-13.05L25.45-13.05Q24.65-12.55 24.25-12.55L24.25-12.55Q23.65-12.55 23.42-13.23 23.2-13.9 23.2-14.55L23.2-14.55Q23.2-15.7 23.67-16.38 24.15-17.05 24.6-17.4L24.6-17.4Q25.65-18.3 27.9-19.38 30.15-20.45 33.3-20.45L33.3-20.45Q37.6-20.45 39.97-18.05 42.35-15.65 42.35-11.35L42.35-11.35Q42.35-8 40.95-5.28 39.55-2.55 37.07-0.95 34.6 0.65 31.3 0.65ZM32.85-4.45L32.85-4.45Q35.35-4.45 37.07-6.03 38.8-7.6 38.8-10.2L38.8-10.2Q38.8-12.9 37.05-14.05 35.3-15.2 33-15.2L33-15.2Q31.95-15.2 31.1-15 30.25-14.8 29.5-14.5L29.5-14.5Q28.8-13.5 28.25-12.25 27.7-11 27.7-9.5L27.7-9.5Q27.7-7 29.2-5.73 30.7-4.45 32.85-4.45ZM52.45 0.65L52.45 0.65Q49.95 0.65 48.57-0.8 47.2-2.25 47.2-5L47.2-5Q47.2-6.95 47.75-9L47.75-9Q48-9.85 48.15-10.7 48.3-11.55 48.3-12.4L48.3-12.4Q48.3-14.6 46.95-15.25L46.95-15.25Q45.65-15.95 45.65-16.75L45.65-16.75Q45.65-17.55 46.32-18.35 47-19.15 48-19.68 49-20.2 50-20.2L50-20.2Q52.84-20.2 52.84-15.55L52.84-15.55Q52.84-14.05 52.62-12.78 52.4-11.5 52.09-10.35L52.09-10.35Q51.9-9.55 51.77-8.75 51.65-7.95 51.65-7.35L51.65-7.35Q51.65-4.85 54.09-4.85L54.09-4.85Q56.4-4.85 58.4-7.3 60.4-9.75 61.7-14.15L61.7-14.15 61.65-15.1Q61.55-17.6 62.52-18.9 63.5-20.2 65.4-20.2L65.4-20.2Q67.05-20.2 67.05-19.15L67.05-19.15Q67.05-18.8 66.92-18.25 66.8-17.7 66.55-16.95L66.55-16.95Q66.05-15.1 65.7-13.03 65.34-10.95 65.34-9.2L65.34-9.2Q65.34-7.25 65.95-5.98 66.55-4.7 68.2-4.25L68.2-4.25Q68.65-4.2 68.92-3.98 69.2-3.75 69.2-3.05L69.2-3.05Q69.2-1.85 68.2-0.7 67.2 0.45 65.3 0.45L65.3 0.45Q61.65 0.45 61.65-4.7L61.65-4.7Q61.65-5.6 61.8-7.4L61.8-7.4 61.7-7.45Q58.55 0.65 52.45 0.65ZM75.04 0.55L75.04 0.55Q74.24 0.55 73.77 0.28 73.29 0 73.44-0.65L73.44-0.65Q73.99-2.8 74.37-5.03 74.74-7.25 74.74-9.3L74.74-9.3Q74.74-11.95 74.42-13.18 74.09-14.4 73.54-14.88 72.99-15.35 72.19-15.6L72.19-15.6Q71.84-15.75 71.57-16 71.29-16.25 71.29-16.7L71.29-16.7Q71.29-17.4 71.84-18.25 72.39-19.1 73.39-19.73 74.39-20.35 75.69-20.35L75.69-20.35Q77.39-20.35 78.07-19.18 78.74-18 78.74-16.1L78.74-16.1Q79.64-18.1 80.97-19.28 82.29-20.45 84.29-20.45L84.29-20.45Q85.64-20.45 86.54-19.85 87.44-19.25 87.44-17.9L87.44-17.9Q87.44-16.55 86.57-15.38 85.69-14.2 84.79-14.2L84.79-14.2Q84.64-14.2 84.44-14.25 84.24-14.3 84.09-14.5L84.09-14.5Q83.44-15.3 82.49-15.3L82.49-15.3Q81.04-15.3 79.94-13.4 78.84-11.5 78.74-8.15L78.74-8.15Q78.79-6.9 78.82-5.6 78.84-4.3 78.84-3.7L78.84-3.7Q78.84-1.85 77.82-0.65 76.79 0.55 75.04 0.55ZM104.74 0.55L104.74 0.55Q102.79 0.55 102.79-0.85L102.79-0.85Q102.79-1.25 102.94-1.9L102.94-1.9Q103.99-7.15 104.44-12.55L104.44-12.55Q103.69-12.35 103.24-12.35L103.24-12.35Q102.74-12.35 102.74-13.25L102.74-13.25Q102.74-14.45 103.34-15.95 103.94-17.45 104.74-18.15L104.74-18.15Q104.74-20.8 104.61-22.58 104.49-24.35 104.14-25.7 103.79-27.05 103.04-28.3L103.04-28.3Q102.59-29 102.59-29.35L102.59-29.35Q102.59-30 103.26-30.63 103.94-31.25 104.91-31.7 105.89-32.15 106.74-32.15L106.74-32.15Q108.34-32.15 108.86-30.73 109.39-29.3 109.39-27L109.39-27Q109.34-25.9 109.19-23.85 109.04-21.8 108.74-18.8L108.74-18.8Q111.89-19 114.89-19.1 117.89-19.2 120.64-19.2L120.64-19.2 124.34-19.2 124.34-20.6Q124.34-24.95 123.19-28.25L123.19-28.25Q122.84-29.1 122.84-29.45L122.84-29.45Q122.84-30.45 124.11-31.3 125.39-32.15 126.79-32.15L126.79-32.15Q128.34-32.15 128.86-31.03 129.39-29.9 129.39-27.85L129.39-27.85Q129.39-26.5 129.14-24.2 128.89-21.9 128.44-18.6L128.44-18.6Q127.99-15.1 127.74-12.83 127.49-10.55 127.49-8.8L127.49-8.8Q127.49-5.5 129.19-3.9L129.19-3.9Q129.84-3.15 129.84-2.4L129.84-2.4Q129.84-1.25 128.49-0.38 127.14 0.5 125.24 0.5L125.24 0.5Q124.04 0.5 123.34-0.15 122.64-0.8 122.64-2.95L122.64-2.95Q122.64-3.7 122.79-5.2 122.94-6.7 123.29-9L123.29-9Q123.49-10.45 123.66-11.8 123.84-13.15 123.94-14.35L123.94-14.35Q123.59-13.9 123.26-13.65 122.94-13.4 122.39-13.45L122.39-13.45Q120.59-13.55 118.81-13.63 117.04-13.7 115.29-13.7L115.29-13.7Q111.64-13.7 108.34-13.25L108.34-13.25Q108.29-12.9 108.26-12.08 108.24-11.25 108.24-10.7L108.24-10.7Q108.24-8.55 108.44-6.25 108.64-3.95 108.84-2.15L108.84-2.15Q108.99-0.9 107.64-0.18 106.29 0.55 104.74 0.55ZM141.79 0.65L141.79 0.65Q138.34 0.65 136.26-1.23 134.19-3.1 134.19-6.75L134.19-6.75Q134.19-8.45 134.66-10.05 135.14-11.65 135.94-13.05L135.94-13.05Q135.14-12.55 134.74-12.55L134.74-12.55Q134.14-12.55 133.91-13.23 133.69-13.9 133.69-14.55L133.69-14.55Q133.69-15.7 134.16-16.38 134.64-17.05 135.09-17.4L135.09-17.4Q136.14-18.3 138.39-19.38 140.64-20.45 143.79-20.45L143.79-20.45Q148.09-20.45 150.46-18.05 152.84-15.65 152.84-11.35L152.84-11.35Q152.84-8 151.44-5.28 150.04-2.55 147.56-0.95 145.09 0.65 141.79 0.65ZM143.34-4.45L143.34-4.45Q145.84-4.45 147.56-6.03 149.29-7.6 149.29-10.2L149.29-10.2Q149.29-12.9 147.54-14.05 145.79-15.2 143.49-15.2L143.49-15.2Q142.44-15.2 141.59-15 140.74-14.8 139.99-14.5L139.99-14.5Q139.29-13.5 138.74-12.25 138.19-11 138.19-9.5L138.19-9.5Q138.19-7 139.69-5.73 141.19-4.45 143.34-4.45ZM163.28 0.65L163.28 0.65Q161.43 0.65 159.83 0.1 158.23-0.45 157.23-1.45 156.23-2.45 156.23-3.85L156.23-3.85Q156.23-4.6 156.61-5.28 156.98-5.95 157.83-5.95L157.83-5.95Q158.28-5.95 158.78-5.7L158.78-5.7Q159.68-5.2 161.08-4.78 162.48-4.35 164.03-4.35L164.03-4.35Q165.78-4.35 167.13-4.85 168.48-5.35 168.48-6.25L168.48-6.25Q168.48-6.95 167.46-7.25 166.43-7.55 164.03-7.9L164.03-7.9Q162.38-8.2 160.83-8.6 159.28-9 158.28-9.98 157.28-10.95 157.28-12.85L157.28-12.85Q157.28-14.7 158.31-16.43 159.33-18.15 161.38-19.3 163.43-20.45 166.38-20.45L166.38-20.45Q167.93-20.45 169.38-20.1 170.83-19.75 171.78-19.05 172.73-18.35 172.73-17.3L172.73-17.3Q172.73-16.4 172.11-15.65 171.48-14.9 170.66-14.43 169.83-13.95 169.28-13.95L169.28-13.95Q168.88-13.95 168.33-14.5L168.33-14.5Q167.48-15.2 166.46-15.48 165.43-15.75 164.43-15.75L164.43-15.75Q162.93-15.75 162.01-15.3 161.08-14.85 161.08-14.15L161.08-14.15Q161.08-13.5 161.86-13.1 162.63-12.7 163.78-12.53 164.93-12.35 165.98-12.2L165.98-12.2Q168.88-11.8 170.58-10.83 172.28-9.85 172.28-7.4L172.28-7.4Q172.28-5.5 171.21-3.63 170.13-1.75 168.11-0.55 166.08 0.65 163.28 0.65ZM183.88 0.65L183.88 0.65Q180.83 0.65 179.51-1.38 178.18-3.4 178.18-6.6L178.18-6.6Q178.18-7.75 178.31-8.85 178.43-9.95 178.58-11.05L178.58-11.05Q178.73-12.15 178.88-13.2 179.03-14.25 179.13-15.2L179.13-15.2Q178.08-14.9 177.03-14.9L177.03-14.9Q175.93-14.9 175.93-15.8L175.93-15.8Q175.93-16.75 176.78-18.13 177.63-19.5 178.91-20.85 180.18-22.2 181.46-23.13 182.73-24.05 183.63-24.05L183.63-24.05Q184.73-24.05 184.73-22.15L184.73-22.15Q184.73-21.65 184.66-21.13 184.58-20.6 184.48-20.05L184.48-20.05Q185.43-20.25 186.41-20.4 187.38-20.55 188.28-20.55L188.28-20.55Q189.43-20.55 190.06-20.15 190.68-19.75 190.68-18.6L190.68-18.6Q190.68-17.4 190.11-16.2 189.53-15 188.83-15L188.83-15Q188.68-15 188.33-15.05 187.98-15.1 187.48-15.2L187.48-15.2Q186.83-15.35 185.83-15.5 184.83-15.65 183.43-15.65L183.43-15.65Q183.08-14.1 182.81-12.48 182.53-10.85 182.53-9.55L182.53-9.55Q182.53-6.65 183.98-5.6 185.43-4.55 188.18-4.55L188.18-4.55Q189.03-4.55 189.38-4.28 189.73-4 189.73-3.3L189.73-3.3Q189.73-1.65 188.03-0.5 186.33 0.65 183.88 0.65ZM200.78 0.65L200.78 0.65Q196.98 0.65 194.85-1.53 192.73-3.7 192.73-7.6L192.73-7.6Q192.73-11.15 194.28-14.05 195.83-16.95 198.45-18.68 201.08-20.4 204.23-20.4L204.23-20.4Q207.23-20.4 209.03-18.93 210.83-17.45 210.83-15L210.83-15Q210.83-13.05 209.63-11.4 208.43-9.75 206.43-8.78 204.43-7.8 201.98-7.8L201.98-7.8Q198.98-7.8 197.08-9.15L197.08-9.15Q197.13-6.85 198.65-5.45 200.18-4.05 202.58-4.05L202.58-4.05Q204.03-4.05 205.55-4.58 207.08-5.1 208.18-6L208.18-6Q208.88-6.6 209.48-6.6L209.48-6.6Q209.98-6.6 210.3-6.28 210.63-5.95 210.63-5.45L210.63-5.45Q210.63-4.35 208.73-2.55L208.73-2.55Q205.38 0.65 200.78 0.65ZM201.53-11.1L201.53-11.1Q203.33-11.1 204.53-11.85 205.73-12.6 205.73-13.75L205.73-13.75Q205.73-14.7 204.93-15.23 204.13-15.75 202.73-15.75L202.73-15.75Q200.88-15.75 199.5-14.78 198.13-13.8 197.53-12.05L197.53-12.05Q198.23-11.6 199.33-11.35 200.43-11.1 201.53-11.1ZM217.98 0.5L217.98 0.5Q216.53 0.5 215.83-0.3 215.13-1.1 215.13-3.1L215.13-3.1Q215.13-4.05 215.28-5.55 215.43-7.05 215.63-8.8L215.63-8.8Q215.93-10.95 216.15-13.3 216.38-15.65 216.38-17.8L216.38-17.8Q216.38-20.85 216.1-24.13 215.83-27.4 214.58-29.85L214.58-29.85Q214.13-30.85 214.13-31.3L214.13-31.3Q214.13-31.95 214.7-32.55 215.28-33.15 216.13-33.58 216.98-34 217.78-34L217.78-34Q219.08-34 219.73-32.83 220.38-31.65 220.58-29.63 220.78-27.6 220.78-25L220.78-25Q220.78-21.05 220.45-18.15 220.13-15.25 219.83-13.05L219.83-13.05Q219.63-11.6 219.45-10.3 219.28-9 219.28-7.95L219.28-7.95Q219.28-6.2 219.85-5.43 220.43-4.65 221.73-3.9L221.73-3.9Q222.08-3.7 222.25-3.53 222.43-3.35 222.43-3L222.43-3Q222.43-2.6 222.03-1.75 221.63-0.9 220.65-0.2 219.68 0.5 217.98 0.5ZM248.07 0.65L248.07 0.65Q245.62 0.65 243.55-0.08 241.47-0.8 240.22-2.1 238.97-3.4 238.97-5.15L238.97-5.15Q238.97-6.3 239.52-7.18 240.07-8.05 241.02-8.05L241.02-8.05Q241.62-8.05 242.27-7.6L242.27-7.6Q243.52-6.5 245.5-5.68 247.47-4.85 249.72-4.85L249.72-4.85Q252.67-4.85 254.55-6.03 256.42-7.2 256.42-9.2L256.42-9.2Q256.42-11.1 254.67-11.95 252.92-12.8 249.82-13.55L249.82-13.55Q247.52-14.1 245.4-14.95 243.27-15.8 241.9-17.32 240.52-18.85 240.52-21.4L240.52-21.4Q240.52-23.35 241.37-25.28 242.22-27.2 243.87-28.8 245.52-30.4 247.87-31.38 250.22-32.35 253.17-32.35L253.17-32.35Q255.37-32.35 257.2-31.85 259.02-31.35 260.1-30.45 261.17-29.55 261.17-28.25L261.17-28.25Q261.17-27.25 260.62-26.5 260.07-25.75 259.32-25.33 258.57-24.9 258.02-24.9L258.02-24.9Q257.52-24.9 256.67-25.35L256.67-25.35Q255.27-26.1 253.55-26.53 251.82-26.95 250.52-26.95L250.52-26.95Q248.07-26.95 246.55-25.88 245.02-24.8 245.02-23.35L245.02-23.35Q245.02-21.75 246.95-20.68 248.87-19.6 253.87-18.4L253.87-18.4Q257.27-17.5 259.17-15.93 261.07-14.35 261.07-10.95L261.07-10.95Q261.07-7.9 259.45-5.25 257.82-2.6 254.9-0.98 251.97 0.65 248.07 0.65ZM266.57 0.55L266.57 0.55Q265.87 0.55 265.37 0.23 264.87-0.1 264.97-0.65L264.97-0.65Q265.72-4.65 266.24-8.78 266.77-12.9 266.77-17.1L266.77-17.1Q266.77-20.8 266.52-23.8 266.27-26.8 264.92-29.55L264.92-29.55Q264.67-30.1 264.52-30.5 264.37-30.9 264.37-31.25L264.37-31.25Q264.37-32.2 265.49-33.1 266.62-34 267.87-34L267.87-34Q269.62-34 270.27-31.8 270.92-29.6 270.92-25.3L270.92-25.3Q270.92-20.15 270.32-16.32 269.72-12.5 269.27-10.5L269.27-10.5 269.47-10.4Q270.47-13.05 271.89-15.35 273.32-17.65 275.22-19.05 277.12-20.45 279.62-20.45L279.62-20.45Q282.27-20.45 283.64-18.85 285.02-17.25 285.02-14.9L285.02-14.9Q285.02-13.9 284.82-12.98 284.62-12.05 284.37-11.2L284.37-11.2Q284.12-10.4 283.92-9.58 283.72-8.75 283.72-7.9L283.72-7.9Q283.72-6.35 284.47-5.38 285.22-4.4 286.47-4L286.47-4Q286.82-3.9 286.99-3.73 287.17-3.55 287.17-3.1L287.17-3.1Q287.17-2.65 286.87-1.8 286.57-0.95 285.77-0.23 284.97 0.5 283.42 0.5L283.42 0.5Q281.42 0.5 280.32-0.93 279.22-2.35 279.22-4.6L279.22-4.6Q279.22-5.7 279.44-6.85 279.67-8 279.97-9.05L279.97-9.05Q280.22-10.1 280.42-11.03 280.62-11.95 280.62-12.6L280.62-12.6Q280.62-14.9 278.22-14.9L278.22-14.9Q276.22-14.9 274.69-13.48 273.17-12.05 272.09-9.88 271.02-7.7 270.32-5.4L270.32-5.4 270.32-3.7Q270.32-1.85 269.24-0.65 268.17 0.55 266.57 0.55ZM296.57 0.65L296.57 0.65Q293.57 0.65 291.74-1.23 289.92-3.1 289.92-6.6L289.92-6.6Q289.92-9.1 290.89-11.58 291.87-14.05 293.72-16.05 295.57-18.05 298.17-19.25 300.77-20.45 304.02-20.45L304.02-20.45Q307.02-20.45 309.14-19.43 311.27-18.4 311.27-16.65L311.27-16.65Q311.27-16.2 311.17-15.48 311.07-14.75 310.92-14.3L310.92-14.3Q310.77-13.9 310.49-13.58 310.22-13.25 309.77-13.25L309.77-13.25Q309.57-13.25 309.02-13.4L309.02-13.4Q308.82-12.35 308.72-11.35 308.62-10.35 308.62-9.35L308.62-9.35Q308.62-7.45 309.19-5.98 309.77-4.5 311.47-4.15L311.47-4.15Q311.92-4.05 312.19-3.85 312.47-3.65 312.47-3L312.47-3Q312.47-2.45 312.19-1.6 311.92-0.75 311.14-0.08 310.37 0.6 308.92 0.6L308.92 0.6Q306.97 0.6 305.92-0.83 304.87-2.25 304.87-4.9L304.87-4.9Q303.52-2.45 301.44-0.9 299.37 0.65 296.57 0.65ZM298.17-4.55L298.17-4.55Q300.17-4.55 301.69-5.8 303.22-7.05 304.07-8.95L304.07-8.95Q304.62-10.15 304.92-11.58 305.22-13 305.32-14.4L305.32-14.4Q304.47-14.8 303.37-15.05 302.27-15.3 301.07-15.3L301.07-15.3Q298.02-15.3 296.04-13.5 294.07-11.7 294.07-9L294.07-9Q294.07-7 295.17-5.78 296.27-4.55 298.17-4.55ZM318.56 0.55L318.56 0.55Q317.76 0.55 317.29 0.28 316.81 0 316.96-0.65L316.96-0.65Q317.51-2.8 317.89-5.03 318.26-7.25 318.26-9.3L318.26-9.3Q318.26-11.95 317.94-13.18 317.61-14.4 317.06-14.88 316.51-15.35 315.71-15.6L315.71-15.6Q315.36-15.75 315.09-16 314.81-16.25 314.81-16.7L314.81-16.7Q314.81-17.4 315.36-18.25 315.91-19.1 316.91-19.73 317.91-20.35 319.21-20.35L319.21-20.35Q320.91-20.35 321.59-19.18 322.26-18 322.26-16.1L322.26-16.1Q323.16-18.1 324.49-19.28 325.81-20.45 327.81-20.45L327.81-20.45Q329.16-20.45 330.06-19.85 330.96-19.25 330.96-17.9L330.96-17.9Q330.96-16.55 330.09-15.38 329.21-14.2 328.31-14.2L328.31-14.2Q328.16-14.2 327.96-14.25 327.76-14.3 327.61-14.5L327.61-14.5Q326.96-15.3 326.01-15.3L326.01-15.3Q324.56-15.3 323.46-13.4 322.36-11.5 322.26-8.15L322.26-8.15Q322.31-6.9 322.34-5.6 322.36-4.3 322.36-3.7L322.36-3.7Q322.36-1.85 321.34-0.65 320.31 0.55 318.56 0.55ZM337.21-24.85L337.21-24.85Q335.81-24.9 334.96-25.7 334.11-26.5 334.11-27.95L334.11-27.95Q334.16-29.5 335.16-30.48 336.16-31.45 337.71-31.4L337.71-31.4Q339.16-31.35 339.99-30.55 340.81-29.75 340.76-28.3L340.76-28.3Q340.71-26.8 339.76-25.83 338.81-24.85 337.21-24.85ZM337.26 0.5L337.26 0.5Q335.76 0.5 334.91-0.33 334.06-1.15 334.06-3.15L334.06-3.15Q334.06-4.3 334.29-5.4 334.51-6.5 334.81-7.55L334.81-7.55Q335.16-8.65 335.38-9.8 335.61-10.95 335.61-12.25L335.61-12.25Q335.61-13.15 335.36-13.98 335.11-14.8 334.26-15.2L334.26-15.2Q333.61-15.55 333.13-15.93 332.66-16.3 332.66-16.9L332.66-16.9Q332.66-17.6 333.31-18.4 333.96-19.2 335.04-19.78 336.11-20.35 337.26-20.35L337.26-20.35Q338.51-20.35 339.09-19.7 339.66-19.05 339.86-18.05 340.06-17.05 340.06-16L340.06-16Q340.06-14.4 339.81-12.88 339.56-11.35 339.31-10.05L339.31-10.05Q339.11-9.1 339.01-8.3 338.91-7.5 338.91-6.8L338.91-6.8Q338.91-5.55 339.51-4.93 340.11-4.3 341.21-3.75L341.21-3.75Q341.66-3.5 341.66-3L341.66-3Q341.66-2.6 341.26-1.75 340.86-0.9 339.88-0.2 338.91 0.5 337.26 0.5ZM348.21 0.55L348.21 0.55Q346.41 0.55 346.61-0.65L346.61-0.65Q347.16-2.8 347.53-5.03 347.91-7.25 347.91-9.3L347.91-9.3Q347.91-11.95 347.58-13.18 347.26-14.4 346.71-14.88 346.16-15.35 345.36-15.6L345.36-15.6Q345.01-15.75 344.73-16 344.46-16.25 344.46-16.7L344.46-16.7Q344.46-17.4 345.01-18.25 345.56-19.1 346.58-19.73 347.61-20.35 348.91-20.35L348.91-20.35Q350.61-20.35 351.26-19.18 351.91-18 351.91-16.1L351.91-16.1Q351.91-14.85 351.66-13.3 351.41-11.75 351.16-10.5L351.16-10.5 351.31-10.45Q352.31-13.1 353.73-15.38 355.16-17.65 357.06-19.05 358.96-20.45 361.46-20.45L361.46-20.45Q364.11-20.45 365.51-18.85 366.91-17.25 366.91-14.85L366.91-14.85Q366.91-13.85 366.68-12.95 366.46-12.05 366.21-11.2L366.21-11.2Q365.96-10.4 365.78-9.55 365.61-8.7 365.61-7.85L365.61-7.85Q365.61-5 368.31-4L368.31-4Q369.01-3.7 369.01-3.1L369.01-3.1Q369.01-2.65 368.71-1.8 368.41-0.95 367.61-0.23 366.81 0.5 365.26 0.5L365.26 0.5Q363.26 0.5 362.16-0.93 361.06-2.35 361.06-4.55L361.06-4.55Q361.06-5.8 361.33-7.08 361.61-8.35 361.91-9.45L361.91-9.45Q362.11-10.3 362.28-11.13 362.46-11.95 362.46-12.6L362.46-12.6Q362.46-14.9 360.06-14.9L360.06-14.9Q358.01-14.9 356.46-13.38 354.91-11.85 353.81-9.55 352.71-7.25 352.01-4.9L352.01-4.9 352.01-3.7Q352.01-1.85 350.98-0.65 349.96 0.55 348.21 0.55ZM378.7 13.8L378.7 13.8Q374.95 13.8 372.75 12.25 370.56 10.7 370.56 8.25L370.56 8.25Q370.56 6.45 371.68 5.05 372.81 3.65 374.66 3.65L374.66 3.65Q375.7 3.65 375.7 4.25L375.7 4.25Q375.7 4.6 375.58 5.05 375.45 5.5 375.45 5.95L375.45 5.95Q375.45 7.35 377.06 8.03 378.66 8.7 380.91 8.7L380.91 8.7Q382.31 8.7 383.75 8.4 385.2 8.1 386.18 7.48 387.16 6.85 387.16 5.8L387.16 5.8Q387.16 4.65 386 4.1 384.86 3.55 383.11 3.28 381.36 3 379.53 2.78 377.7 2.55 376.41 2.05L376.41 2.05Q374.75 1.5 373.95 0.7 373.16-0.1 373.16-1.35L373.16-1.35Q373.16-3.7 376-5.1L376-5.1Q374.36-5.95 373.53-7.5 372.7-9.05 372.7-10.95L372.7-10.95Q372.7-13.4 373.98-15.55 375.25-17.7 377.78-19.07 380.31-20.45 384.11-20.45L384.11-20.45Q385.81-20.45 387.56-20.13 389.31-19.8 390.48-18.93 391.66-18.05 391.66-16.4L391.66-16.4Q391.66-15.8 391.41-15.08 391.16-14.35 390.45-14.35L390.45-14.35Q390.16-14.35 389.66-14.48 389.16-14.6 388.75-14.7L388.75-14.7Q388.86-14.2 388.93-13.6 389-13 389-12.35L389-12.35Q389-9.4 387-7.03 385-4.65 381.16-4.2L381.16-4.2Q379.75-4.1 379.08-3.88 378.41-3.65 378.41-3.1L378.41-3.1Q378.41-2.6 379-2.38 379.61-2.15 380.56-2.05L380.56-2.05Q383.61-1.8 385.95-1.2 388.31-0.6 389.63 0.73 390.95 2.05 390.95 4.5L390.95 4.5Q390.95 7.35 389.28 9.43 387.61 11.5 384.81 12.65 382 13.8 378.7 13.8ZM380.61-8.55L380.61-8.55Q382.91-8.55 384.2-9.8 385.5-11.05 385.5-13.05L385.5-13.05Q385.5-13.6 385.41-14.18 385.31-14.75 385.2-15.15L385.2-15.15Q384.41-15.4 383.66-15.48 382.91-15.55 382.2-15.55L382.2-15.55Q379.56-15.55 378.06-14.55 376.56-13.55 376.56-11.8L376.56-11.8Q376.56-10.25 377.66-9.4 378.75-8.55 380.61-8.55ZM411.65 0.55L411.65 0.55Q409.7 0.55 409.7-0.85L409.7-0.85Q409.7-1.25 409.85-1.9L409.85-1.9Q410.9-7.15 411.35-12.55L411.35-12.55Q410.6-12.35 410.15-12.35L410.15-12.35Q409.65-12.35 409.65-13.25L409.65-13.25Q409.65-14.45 410.25-15.95 410.85-17.45 411.65-18.15L411.65-18.15Q411.65-20.8 411.53-22.58 411.4-24.35 411.05-25.7 410.7-27.05 409.95-28.3L409.95-28.3Q409.5-29 409.5-29.35L409.5-29.35Q409.5-30 410.18-30.63 410.85-31.25 411.82-31.7 412.8-32.15 413.65-32.15L413.65-32.15Q415.25-32.15 415.78-30.73 416.3-29.3 416.3-27L416.3-27Q416.25-25.9 416.1-23.85 415.95-21.8 415.65-18.8L415.65-18.8Q418.8-19 421.8-19.1 424.8-19.2 427.55-19.2L427.55-19.2 431.25-19.2 431.25-20.6Q431.25-24.95 430.1-28.25L430.1-28.25Q429.75-29.1 429.75-29.45L429.75-29.45Q429.75-30.45 431.03-31.3 432.3-32.15 433.7-32.15L433.7-32.15Q435.25-32.15 435.78-31.03 436.3-29.9 436.3-27.85L436.3-27.85Q436.3-26.5 436.05-24.2 435.8-21.9 435.35-18.6L435.35-18.6Q434.9-15.1 434.65-12.83 434.4-10.55 434.4-8.8L434.4-8.8Q434.4-5.5 436.1-3.9L436.1-3.9Q436.75-3.15 436.75-2.4L436.75-2.4Q436.75-1.25 435.4-0.38 434.05 0.5 432.15 0.5L432.15 0.5Q430.95 0.5 430.25-0.15 429.55-0.8 429.55-2.95L429.55-2.95Q429.55-3.7 429.7-5.2 429.85-6.7 430.2-9L430.2-9Q430.4-10.45 430.57-11.8 430.75-13.15 430.85-14.35L430.85-14.35Q430.5-13.9 430.18-13.65 429.85-13.4 429.3-13.45L429.3-13.45Q427.5-13.55 425.73-13.63 423.95-13.7 422.2-13.7L422.2-13.7Q418.55-13.7 415.25-13.25L415.25-13.25Q415.2-12.9 415.18-12.08 415.15-11.25 415.15-10.7L415.15-10.7Q415.15-8.55 415.35-6.25 415.55-3.95 415.75-2.15L415.75-2.15Q415.9-0.9 414.55-0.18 413.2 0.55 411.65 0.55ZM447.05 0.65L447.05 0.65Q444.55 0.65 443.17-0.8 441.8-2.25 441.8-5L441.8-5Q441.8-6.95 442.35-9L442.35-9Q442.6-9.85 442.75-10.7 442.9-11.55 442.9-12.4L442.9-12.4Q442.9-14.6 441.55-15.25L441.55-15.25Q440.25-15.95 440.25-16.75L440.25-16.75Q440.25-17.55 440.92-18.35 441.6-19.15 442.6-19.68 443.6-20.2 444.6-20.2L444.6-20.2Q447.45-20.2 447.45-15.55L447.45-15.55Q447.45-14.05 447.22-12.78 447-11.5 446.7-10.35L446.7-10.35Q446.5-9.55 446.37-8.75 446.25-7.95 446.25-7.35L446.25-7.35Q446.25-4.85 448.7-4.85L448.7-4.85Q451-4.85 453-7.3 455-9.75 456.3-14.15L456.3-14.15 456.25-15.1Q456.15-17.6 457.12-18.9 458.1-20.2 460-20.2L460-20.2Q461.65-20.2 461.65-19.15L461.65-19.15Q461.65-18.8 461.52-18.25 461.4-17.7 461.15-16.95L461.15-16.95Q460.65-15.1 460.3-13.03 459.95-10.95 459.95-9.2L459.95-9.2Q459.95-7.25 460.55-5.98 461.15-4.7 462.8-4.25L462.8-4.25Q463.25-4.2 463.52-3.98 463.8-3.75 463.8-3.05L463.8-3.05Q463.8-1.85 462.8-0.7 461.8 0.45 459.9 0.45L459.9 0.45Q456.25 0.45 456.25-4.7L456.25-4.7Q456.25-5.6 456.4-7.4L456.4-7.4 456.3-7.45Q453.15 0.65 447.05 0.65ZM476.75 0.65L476.75 0.65Q474.9 0.65 473.57 0 472.25-0.65 471.25-1.65L471.25-1.65Q470.75-0.8 470.07-0.13 469.4 0.55 468.55 0.55L468.55 0.55Q468 0.55 467.5 0.23 467-0.1 467.1-0.65L467.1-0.65Q467.85-4.65 468.37-8.75 468.9-12.85 468.9-17.1L468.9-17.1Q468.9-20.65 468.65-23.75 468.4-26.85 467.1-29.45L467.1-29.45Q466.85-29.95 466.67-30.4 466.5-30.85 466.5-31.25L466.5-31.25Q466.5-32.2 467.6-33.1 468.7-34 469.95-34L469.95-34Q471.75-34 472.4-31.8 473.05-29.6 473.05-25.3L473.05-25.3Q473.05-21.65 472.72-18.63 472.4-15.6 472-13.45L472-13.45Q473.4-16.4 475.82-18.43 478.25-20.45 481.3-20.45L481.3-20.45Q484.35-20.45 486.07-18.43 487.8-16.4 487.8-12.95L487.8-12.95Q487.8-10.4 487-7.98 486.2-5.55 484.75-3.6 483.3-1.65 481.27-0.5 479.25 0.65 476.75 0.65ZM477.9-4.75L477.9-4.75Q480.75-4.75 482.3-6.55 483.85-8.35 483.85-10.7L483.85-10.7Q483.85-12.75 482.72-13.88 481.6-15 479.75-15L479.75-15Q477.9-15 476.45-13.88 475-12.75 474-10.93 473-9.1 472.45-7L472.45-7Q473.6-5.9 475.02-5.33 476.45-4.75 477.9-4.75Z" opacity="1" transform="matrix(1,0,0,1,0,0)" fill="#350145" class="slogan-text-1" data-fill-palette-color="secondary" id="text-1"></path></svg></g></svg></g></svg></g></svg></g><g></g></svg></g><defs></defs></svg><rect width="395.52" height="139.1655626823226" fill="none" stroke="none" visibility="hidden"></rect></g></svg></g></svg>